<svg width="227" height="85" viewBox="0 0 227 85" fill="none" xmlns="http://www.w3.org/2000/svg">
    <path d="M121.357 62.7537C118.026 62.7537 115.199 62.2489 112.977 61.1383C110.655 60.0277 108.939 58.6143 107.727 56.797C106.516 54.9797 105.91 52.8595 105.91 50.4364H113.078C113.078 51.446 113.381 52.3546 113.886 53.3643C114.391 54.2729 115.3 55.0806 116.511 55.6864C117.723 56.2921 119.338 56.595 121.357 56.595C123.175 56.595 124.588 56.2921 125.8 55.7873C127.011 55.2825 127.92 54.5758 128.425 53.7681C129.03 52.9604 129.333 51.9508 129.333 50.9412C129.333 49.6287 128.727 48.5181 127.617 47.7104C126.506 46.9027 124.79 46.3979 122.367 46.196L119.035 45.8931C115.401 45.5902 112.574 44.4796 110.453 42.5614C108.333 40.6431 107.223 38.0181 107.223 34.8883C107.223 32.4652 107.828 30.446 108.939 28.7296C110.05 27.0133 111.665 25.7008 113.684 24.6912C115.703 23.7825 118.126 23.2777 120.852 23.2777C123.679 23.2777 126.102 23.7825 128.223 24.7921C130.242 25.8017 131.857 27.2152 132.968 28.9316C134.078 30.7489 134.684 32.8691 134.684 35.2921H127.516C127.516 34.2825 127.314 33.2729 126.809 32.4652C126.304 31.5566 125.598 30.8498 124.588 30.345C123.578 29.8402 122.367 29.5373 120.852 29.5373C119.439 29.5373 118.227 29.7393 117.218 30.2441C116.309 30.7489 115.502 31.3546 115.098 32.1623C114.593 32.97 114.391 33.8787 114.391 34.7873C114.391 35.9989 114.795 37.0085 115.703 37.8162C116.511 38.7248 117.925 39.2296 119.742 39.3306L123.074 39.6335C125.699 39.8354 128.122 40.4412 130.141 41.3498C132.16 42.2585 133.776 43.571 134.886 45.0854C135.997 46.7008 136.602 48.5181 136.602 50.7393C136.602 53.0614 135.997 55.1816 134.785 56.9989C133.574 58.8162 131.756 60.2296 129.535 61.1383C127.112 62.2489 124.386 62.7537 121.357 62.7537ZM142.963 61.845V24.3883H150.131V61.845H142.963ZM139.429 29.6383V24.2873H150.03V29.6383H139.429ZM175.17 61.845V53.5662H173.958V44.3787C173.958 42.7633 173.554 41.5518 172.747 40.7441C171.939 39.9364 170.727 39.5325 169.112 39.5325C168.304 39.5325 167.194 39.5325 165.982 39.6335C164.771 39.6335 163.559 39.7344 162.348 39.7344C161.136 39.8354 160.026 39.8354 159.117 39.9364V33.8787C159.925 33.7777 160.833 33.7777 161.742 33.6768C162.751 33.5758 163.761 33.5758 164.771 33.5758C165.78 33.5758 166.79 33.5758 167.699 33.5758C170.526 33.5758 172.949 33.9796 174.867 34.6864C176.785 35.3931 178.199 36.6046 179.208 38.22C180.218 39.8354 180.622 41.9556 180.622 44.5806V61.845H175.17ZM166.184 62.5518C164.165 62.5518 162.348 62.1479 160.833 61.4412C159.319 60.7345 158.107 59.7248 157.3 58.3114C156.492 56.9989 156.088 55.3835 156.088 53.4652C156.088 51.446 156.593 49.7296 157.602 48.4171C158.612 47.1046 160.026 46.095 161.843 45.4893C163.66 44.8835 165.78 44.4796 168.304 44.4796H174.766V48.72H168.203C166.588 48.72 165.276 49.1239 164.468 49.9316C163.559 50.7393 163.155 51.7489 163.155 53.0614C163.155 54.3739 163.559 55.3835 164.468 56.1912C165.377 56.9989 166.588 57.4027 168.203 57.4027C169.213 57.4027 170.122 57.2008 170.929 56.8979C171.737 56.4941 172.444 55.8883 173.05 55.0806C173.655 54.1719 173.958 53.0614 173.958 51.5469L175.675 53.5662C175.473 55.4844 175.069 57.2008 174.261 58.5133C173.453 59.8258 172.444 60.8354 171.03 61.5421C169.718 62.1479 168.102 62.5518 166.184 62.5518ZM186.276 61.845V33.9796H191.929V45.7921H191.727C191.727 41.7537 192.535 38.7248 194.252 36.7056C195.968 34.6864 198.492 33.5758 201.824 33.5758H202.833V39.8354H200.915C198.492 39.8354 196.675 40.4412 195.362 41.7537C194.05 43.0662 193.343 44.8835 193.343 47.3066V61.845H186.276ZM222.016 62.1479C219.492 62.1479 217.372 61.845 215.655 61.1383C214.04 60.4316 212.727 59.321 211.92 57.7056C211.112 56.0902 210.708 53.97 210.708 51.2441L210.809 26.0037H217.473L217.372 51.7489C217.372 53.1623 217.776 54.1719 218.482 54.8787C219.189 55.5854 220.3 55.9893 221.612 55.9893H225.953V62.1479H222.016ZM206.367 39.1287V33.8787H226.054V39.1287H206.367Z" fill="white"/>
    <path d="M42 84.9652C65.196 84.9652 84 66.1612 84 42.9652C84 19.7692 65.196 0.96521 42 0.96521C18.804 0.96521 0 19.7692 0 42.9652C0 66.1612 18.804 84.9652 42 84.9652Z" fill="white"/>
    <path fill-rule="evenodd" clip-rule="evenodd" d="M35.637 68.3064C31.0937 67.0949 27.5601 65.3785 24.8341 63.1574C22.1081 60.9362 20.3918 58.4122 19.3822 55.4843C18.4735 52.6574 18.4735 49.6285 19.2812 46.3978L31.1947 49.6285C30.8918 50.7391 30.8918 51.9506 31.2956 53.0612C31.6995 54.1718 32.4062 55.1814 33.6177 56.0901C34.7283 56.9987 36.3437 57.7055 38.262 58.2103C39.9783 58.7151 41.4927 58.816 42.8052 58.7151C43.8149 58.6141 44.6226 58.4122 45.3293 58.0083L51.387 68.0035C49.9735 68.6093 48.4591 69.0131 46.7427 69.316C43.6129 69.8208 39.8774 69.417 35.637 68.3064ZM48.0552 54.5756C48.2572 53.3641 47.9543 52.1526 47.0456 51.143C46.6418 50.6381 45.9351 50.1333 45.1274 49.6285L28.4687 21.8641C28.8726 21.1574 29.3774 20.6526 29.9831 20.0468L56.536 64.268C56.1322 64.6718 55.7283 65.1766 55.2235 65.5805L54.8197 65.8833L48.0552 54.5756ZM33.1129 17.8257C34.6274 17.018 36.3437 16.4122 38.161 16.1093C41.1899 15.6045 44.5216 15.9074 48.1562 16.917C52.0937 18.0276 55.3245 19.542 57.7476 21.5612C60.1706 23.5805 61.786 26.1045 62.5937 28.8305C63.4014 31.6574 63.4014 34.5853 62.4927 37.816L50.5793 34.5853C50.8822 33.5757 50.8822 32.4651 50.5793 31.4555C50.2764 30.4458 49.6706 29.5372 48.8629 28.7295C48.0552 27.9218 46.8437 27.417 45.4303 27.0132C44.1178 26.6093 42.9062 26.6093 41.8966 26.7103C40.887 26.9122 40.0793 27.316 39.3726 27.9218L39.2716 28.0228L33.1129 17.8257ZM42.4014 36.6045L45.4303 37.7151C48.9639 39.0276 51.9927 40.643 54.4158 42.6622C56.8389 44.6814 58.5553 47.0035 59.5649 49.5276C60.5745 52.1526 60.6754 54.9795 59.8677 58.1093C59.6658 59.0179 59.262 59.9266 58.9591 60.7343L45.0264 37.5132L42.4014 36.6045ZM39.0697 47.2055L38.3629 47.0035C33.5168 45.1862 29.9831 42.5612 27.661 39.1285C25.4399 35.5949 24.9351 31.6574 26.1466 27.2151C26.2476 26.9122 26.3485 26.6093 26.4495 26.3064L39.0697 47.2055Z" fill="url(#paint0_radial_71_2061)"/>
    <mask id="mask0_71_2061" style="mask-type:luminance" maskUnits="userSpaceOnUse" x="106" y="23" width="31" height="40">
    <path d="M121.666 62.7031C118.334 62.7031 115.507 62.1983 113.286 61.0877C110.964 59.9772 109.248 58.5637 108.036 56.7464C106.825 54.9291 106.219 52.8089 106.219 50.3858H113.387C113.387 51.3955 113.69 52.3041 114.195 53.3137C114.7 54.2224 115.608 55.0301 116.82 55.6358C118.031 56.2416 119.647 56.5445 121.666 56.5445C123.483 56.5445 124.897 56.2416 126.108 55.7368C127.32 55.232 128.228 54.5253 128.733 53.7176C129.339 52.9099 129.642 51.9003 129.642 50.8906C129.642 49.5781 129.036 48.4676 127.925 47.6599C126.815 46.8522 125.099 46.3474 122.675 46.1455L119.344 45.8426C115.709 45.5397 112.882 44.4291 110.762 42.5108C108.642 40.5926 107.531 37.9676 107.531 34.8378C107.531 32.4147 108.137 30.3955 109.248 28.6791C110.358 26.9628 111.974 25.6503 113.993 24.6406C116.012 23.732 118.435 23.2272 121.161 23.2272C123.988 23.2272 126.411 23.732 128.531 24.7416C130.55 25.7512 132.166 27.1647 133.276 28.881C134.387 30.6983 134.993 32.8185 134.993 35.2416H127.825C127.825 34.232 127.623 33.2224 127.118 32.4147C126.613 31.506 125.906 30.7993 124.897 30.2945C123.887 29.7897 122.675 29.4868 121.161 29.4868C119.748 29.4868 118.536 29.6887 117.526 30.1935C116.618 30.6983 115.81 31.3041 115.406 32.1118C114.901 32.9195 114.7 33.8281 114.7 34.7368C114.7 35.9483 115.103 36.958 116.012 37.7656C116.82 38.6743 118.233 39.1791 120.05 39.2801L123.382 39.583C126.007 39.7849 128.43 40.3906 130.45 41.2993C132.469 42.208 134.084 43.5204 135.195 45.0349C136.305 46.6503 136.911 48.4676 136.911 50.6887C136.911 53.0108 136.305 55.131 135.094 56.9483C133.882 58.7656 132.065 60.1791 129.844 61.0877C127.421 62.1983 124.695 62.7031 121.666 62.7031Z" fill="white"/>
    </mask>
    <g mask="url(#mask0_71_2061)">
    <path fill-rule="evenodd" clip-rule="evenodd" d="M52.0039 28.7797C131.158 52.9095 209.605 52.9095 288.355 28.7797C367.105 4.64987 207.889 79.3614 207.889 79.3614L104.706 74.3133L52.0039 28.7797Z" fill="white"/>
    </g>
    <mask id="mask1_71_2061" style="mask-type:luminance" maskUnits="userSpaceOnUse" x="186" y="33" width="18" height="29">
    <path d="M186.574 61.794V33.9286H192.228V45.7411H192.026C192.026 41.7027 192.834 38.6738 194.55 36.6546C196.267 34.6353 198.791 33.5248 202.122 33.5248H203.132V39.7844H201.214C198.791 39.7844 196.973 40.3902 195.661 41.7027C194.348 43.0152 193.642 44.8325 193.642 47.2555V61.794H186.574Z" fill="white"/>
    </mask>
    <g mask="url(#mask1_71_2061)">
    <path fill-rule="evenodd" clip-rule="evenodd" d="M51.9961 28.7794C131.15 52.9092 209.597 52.9092 288.347 28.7794C367.097 4.64962 207.881 79.3612 207.881 79.3612L104.698 74.3131L51.9961 28.7794Z" fill="white"/>
    </g>
    <mask id="mask2_71_2061" style="mask-type:luminance" maskUnits="userSpaceOnUse" x="206" y="25" width="21" height="38">
    <path d="M222.317 62.0978C219.793 62.0978 217.673 61.795 215.957 61.0882C214.341 60.3815 213.029 59.2709 212.221 57.6555C211.413 56.0401 211.01 53.92 211.01 51.194L211.111 25.9536H217.774L217.673 51.6988C217.673 53.1123 218.077 54.1219 218.784 54.8286C219.49 55.5353 220.601 55.9392 221.913 55.9392H226.255V62.0978H222.317ZM206.668 39.0786V33.8286H226.356V39.0786H206.668Z" fill="white"/>
    </mask>
    <g mask="url(#mask2_71_2061)">
    <path fill-rule="evenodd" clip-rule="evenodd" d="M51.9846 28.7808C131.138 52.9106 209.586 52.9106 288.336 28.7808C367.086 4.65097 207.869 79.3625 207.869 79.3625L104.687 74.3144L51.9846 28.7808Z" fill="white"/>
    </g>
    <defs>
    <radialGradient id="paint0_radial_71_2061" cx="0" cy="0" r="1" gradientUnits="userSpaceOnUse" gradientTransform="translate(32.4851 26.1041) rotate(60.2223) scale(17.1241 15.6874)">
    <stop stop-color="#7702FD"/>
    <stop offset="1" stop-color="#6A04B3"/>
    </radialGradient>
    </defs>
    </svg>
    