<svg width="233" height="98" viewBox="0 0 233 98" fill="none" xmlns="http://www.w3.org/2000/svg">
    <path d="M137.867 22.3975C124.845 14.7798 103.258 2.6237 91.3025 -3.83853C77.9621 -11.0457 59.0744 -20.7326 47.0357 -26.5634C39.0843 -30.4117 25.3778 -36.6366 23.1986 -37.4004C21.4401 -38.0108 21.0172 -37.7925 22.0695 -36.8569C22.7 -36.3187 23.5853 -35.8396 27.2193 -34.0787C29.6082 -32.9302 32.3752 -31.5564 33.2676 -31.0892C34.214 -30.5899 39.4168 -28.0234 44.8641 -25.376C56.043 -19.9443 72.5621 -11.6857 81.792 -6.91296C115.196 10.3414 150.965 30.8713 179.888 49.3803C191.337 56.6923 208.68 68.2327 223.652 78.4727C226.615 80.499 229.183 82.208 229.359 82.2806C230.466 82.6326 215.381 71.9683 201.667 62.6886C185.446 51.7202 173.082 43.733 157.283 34.0217C148.816 28.828 147.042 27.7538 137.867 22.3975Z" fill="#A136EE"/>
    <path d="M129.574 50.213C120.065 44.4456 104.239 35.3233 95.4387 30.5219C85.6181 25.1679 71.6449 18.0677 62.6929 13.8611C56.7798 11.0854 46.5326 6.68035 44.8733 6.18972C43.5336 5.79942 43.1627 6.04464 43.8885 6.80788C44.3264 7.24436 44.978 7.60046 47.6801 8.87103C49.4577 9.69781 51.5107 10.6959 52.1696 11.0402C52.8679 11.4089 56.7305 13.2701 60.78 15.1819C69.0903 19.1041 81.3396 25.1156 88.1627 28.6215C112.859 41.2923 139.029 56.7677 159.938 71.0536C168.215 76.6951 180.694 85.6716 191.429 93.6786C193.554 95.263 195.401 96.5924 195.534 96.6421C196.382 96.8579 185.612 88.4682 175.765 81.2269C164.117 72.6688 155.19 66.4922 143.716 59.0593C137.566 55.0858 136.275 54.2663 129.574 50.213Z" fill="#A136EE"/>
    <path d="M97.7302 65.8356C91.2888 61.9765 80.4991 55.9868 74.4598 52.9029C67.7195 49.465 58.0539 45.0443 51.8117 42.5233C47.688 40.8608 40.4829 38.348 39.2837 38.1436C38.3147 37.9839 37.995 38.2609 38.4395 38.8492C38.7113 39.1823 39.1583 39.4112 41.0424 40.1729C42.2831 40.6658 43.7098 41.2743 44.1643 41.4913C44.6453 41.7249 47.332 42.8546 50.1543 44.0031C55.9466 46.359 64.4508 50.0409 69.1649 52.2348C86.2301 60.1589 104.016 70.4186 117.945 80.3633C123.462 84.2873 131.71 90.6321 138.764 96.3492C140.16 97.4804 141.381 98.4202 141.475 98.4461C142.093 98.5187 135.068 92.4586 128.583 87.3084C120.91 81.2231 114.974 76.907 107.271 71.8196C103.14 69.1024 102.271 68.5453 97.7302 65.8356Z" fill="#A136EE"/>
    </svg>
    