<svg width="203" height="21" viewBox="0 0 203 21" fill="none" xmlns="http://www.w3.org/2000/svg">
    <path d="M110.705 0.951789C97.9857 1.33636 77.1128 2.8521 65.6742 4.19384C52.9119 5.69857 35.0744 8.79157 23.8591 11.4025C16.4529 13.1323 3.86926 16.8751 1.96982 17.8906C0.439823 18.7212 0.235536 19.6007 1.40676 20.1654C2.09852 20.4619 2.94583 20.3637 6.33159 19.5772C8.55334 19.0431 11.1461 18.5057 11.9932 18.3772C12.8932 18.2482 17.7611 17.2065 22.8398 16.0419C33.2619 13.6499 48.7668 10.5472 57.5009 9.10827C89.1022 3.86614 123.862 2.0766 152.824 4.18179C164.282 4.98867 181.847 7.07333 197.134 9.38993C200.16 9.84747 202.76 10.1574 202.919 10.0955C203.868 9.51212 188.309 6.53209 174.35 4.59722C157.844 2.32164 145.43 1.28107 129.788 0.874267C121.411 0.675775 119.661 0.660941 110.705 0.951789Z" fill="#BC69F7"/>
    </svg>
    