<svg width="574" height="189" viewBox="0 0 574 189" fill="none" xmlns="http://www.w3.org/2000/svg">
    <path d="M73.4868 188.04C57.6367 188.04 44.1882 185.638 33.6215 180.355C22.5744 175.071 14.4091 168.347 8.64546 159.702C2.88178 151.056 0 140.97 0 129.442H34.1018C34.1018 134.245 35.5427 138.568 37.9442 143.371C40.3457 147.694 44.6685 151.536 50.4322 154.418C56.1959 157.3 63.8807 158.741 73.4868 158.741C82.1324 158.741 88.8568 157.3 94.6204 154.899C100.384 152.497 104.707 149.135 107.108 145.292C109.99 141.45 111.431 136.647 111.431 131.844C111.431 125.6 108.549 120.317 103.266 116.474C97.9825 112.632 89.8173 110.23 78.2899 109.27L62.4398 107.829C45.1488 106.388 31.7002 101.104 21.6138 91.9784C11.5274 82.8526 6.24393 70.3646 6.24393 55.4751C6.24393 43.9478 9.12582 34.3417 14.4092 26.1765C19.6926 18.0113 27.3775 11.7673 36.9837 6.9642C46.5898 2.64144 58.117 0.239868 71.0853 0.239868C84.5339 0.239868 96.0613 2.6414 106.148 7.44447C115.754 12.2475 123.439 18.9718 128.722 27.1371C134.005 35.7826 136.887 45.869 136.887 57.3964H102.786C102.786 52.5933 101.825 47.7902 99.4235 43.9478C97.022 39.625 93.6598 36.2629 88.8567 33.8613C84.0536 31.4598 78.2899 30.0189 71.0853 30.0189C64.361 30.0189 58.5975 30.9795 53.7944 33.3811C49.4716 35.7826 45.6291 38.6644 43.7079 42.5069C41.3064 46.3493 40.3457 50.6721 40.3457 54.9949C40.3457 60.7585 42.267 65.5616 46.5898 69.404C50.4322 73.7268 57.1565 76.1283 65.802 76.6086L81.6521 78.0496C94.1401 79.0102 105.667 81.892 115.274 86.2148C124.88 90.5375 132.565 96.7815 137.848 103.986C143.131 111.671 146.013 120.317 146.013 130.883C146.013 141.93 143.131 152.017 137.368 160.662C131.604 169.308 122.958 176.032 112.392 180.355C100.864 185.638 87.896 188.04 73.4868 188.04ZM176.273 183.717V5.52327H210.374V183.717H176.273ZM159.462 30.4992V5.04293H209.894V30.4992H159.462ZM329.49 183.717V144.332H323.727V100.624C323.727 92.9391 321.805 87.1754 317.963 83.3329C314.121 79.4905 308.357 77.5692 300.672 77.5692C296.829 77.5692 291.546 77.5693 285.782 78.0496C280.019 78.0496 274.255 78.5298 268.491 78.5298C262.728 79.0101 257.444 79.0101 253.122 79.4904V50.6721C256.964 50.1917 261.287 50.1918 265.609 49.7115C270.412 49.2311 275.216 49.2312 280.019 49.2312C284.822 49.2312 289.625 49.2312 293.948 49.2312C307.396 49.2312 318.923 51.1524 328.049 54.5145C337.175 57.8767 343.899 63.6403 348.703 71.3252C353.506 79.0101 355.427 89.0966 355.427 101.585V183.717H329.49ZM286.743 187.079C277.137 187.079 268.491 185.158 261.287 181.796C254.082 178.434 248.318 173.631 244.476 166.906C240.634 160.662 238.712 152.977 238.712 143.852C238.712 134.245 241.114 126.08 245.917 119.836C250.72 113.592 257.444 108.789 266.09 105.907C274.735 103.025 284.822 101.104 296.829 101.104H327.569V121.277H296.349C288.664 121.277 282.42 123.198 278.578 127.041C274.255 130.883 272.334 135.686 272.334 141.93C272.334 148.174 274.255 152.977 278.578 156.82C282.901 160.662 288.664 162.583 296.349 162.583C301.152 162.583 305.475 161.623 309.317 160.182C313.16 158.261 316.522 155.379 319.404 151.536C322.286 147.214 323.727 141.93 323.727 134.726L331.892 144.332C330.931 153.458 329.01 161.623 325.168 167.867C321.325 174.111 316.522 178.914 309.798 182.276C303.554 185.158 295.869 187.079 286.743 187.079ZM382.324 183.717V51.1524H409.221V107.348H408.26C408.26 88.136 412.103 73.7268 420.268 64.1206C428.433 54.5145 440.441 49.2312 456.291 49.2312H461.094V79.0102H451.968C440.441 79.0102 431.796 81.892 425.552 88.136C419.308 94.38 415.945 103.025 415.945 114.553V183.717H382.324ZM552.352 185.158C540.345 185.158 530.258 183.717 522.093 180.355C514.408 176.993 508.164 171.709 504.322 164.024C500.479 156.34 498.558 146.253 498.558 133.285L499.038 13.2082H530.739L530.258 135.686C530.258 142.411 532.18 147.214 535.542 150.576C538.904 153.938 544.187 155.859 550.431 155.859H571.084V185.158H552.352ZM477.905 75.648V50.6721H571.565V75.648H477.905Z" fill="#212121"/>
    <mask id="mask0_71_2225" style="mask-type:luminance" maskUnits="userSpaceOnUse" x="1" y="0" width="147" height="188">
    <path d="M74.9243 187.8C59.0742 187.8 45.6257 185.398 35.059 180.115C24.0119 174.832 15.8466 168.107 10.083 159.462C4.31928 150.816 1.4375 140.73 1.4375 129.202H35.5393C35.5393 134.006 36.9802 138.328 39.3817 143.131C41.7832 147.454 46.106 151.297 51.8697 154.178C57.6334 157.06 65.3182 158.501 74.9243 158.501C83.5699 158.501 90.2943 157.06 96.0579 154.659C101.822 152.257 106.144 148.895 108.546 145.053C111.428 141.21 112.869 136.407 112.869 131.604C112.869 125.36 109.987 120.077 104.703 116.234C99.42 112.392 91.2548 109.99 79.7274 109.03L63.8773 107.589C46.5863 106.148 33.1377 100.864 23.0513 91.7386C12.9649 82.6127 7.68143 70.1247 7.68143 55.2352C7.68143 43.7079 10.5633 34.1018 15.8467 25.9366C21.1301 17.7714 28.815 11.5274 38.4212 6.72433C48.0273 2.40158 59.5545 0 72.5228 0C85.9714 0 97.4988 2.40153 107.585 7.2046C117.191 12.0077 124.876 18.732 130.16 26.8972C135.443 35.5427 138.325 45.6292 138.325 57.1565H104.223C104.223 52.3535 103.263 47.5504 100.861 43.7079C98.4595 39.3852 95.0973 36.023 90.2942 33.6215C85.4911 31.2199 79.7274 29.7791 72.5228 29.7791C65.7985 29.7791 60.035 30.7397 55.2319 33.1412C50.9091 35.5427 47.0667 38.4245 45.1454 42.267C42.7439 46.1094 41.7832 50.4322 41.7832 54.755C41.7832 60.5187 43.7045 65.3217 48.0273 69.1642C51.8697 73.4869 58.594 75.8885 67.2396 76.3688L83.0896 77.8097C95.5776 78.7703 107.105 81.6521 116.711 85.9749C126.317 90.2977 134.002 96.5416 139.286 103.746C144.569 111.431 147.451 120.077 147.451 130.643C147.451 141.69 144.569 151.777 138.805 160.422C133.042 169.068 124.396 175.792 113.829 180.115C102.302 185.398 89.3335 187.8 74.9243 187.8Z" fill="white"/>
    </mask>
    <g mask="url(#mask0_71_2225)">
    <path fill-rule="evenodd" clip-rule="evenodd" d="M-256.484 26.4158C120.076 141.209 493.274 141.209 867.913 26.4158C1242.55 -88.3775 485.109 267.049 485.109 267.049L-5.76443 243.034L-256.484 26.4158Z" fill="#212121"/>
    </g>
    <mask id="mask1_71_2225" style="mask-type:luminance" maskUnits="userSpaceOnUse" x="383" y="48" width="80" height="136">
    <path d="M383.754 183.478V50.9129H410.651V107.109H409.69C409.69 87.8965 413.533 73.4873 421.698 63.8812C429.863 54.275 441.871 48.9917 457.721 48.9917H462.524V78.7707H453.398C441.871 78.7707 433.225 81.6525 426.981 87.8965C420.738 94.1405 417.375 102.786 417.375 114.313V183.478H383.754Z" fill="white"/>
    </mask>
    <g mask="url(#mask1_71_2225)">
    <path fill-rule="evenodd" clip-rule="evenodd" d="M-256.484 26.4177C120.076 141.211 493.274 141.211 867.913 26.4177C1242.55 -88.3755 485.109 267.051 485.109 267.051L-5.76443 243.036L-256.484 26.4177Z" fill="#212121"/>
    </g>
    <mask id="mask2_71_2225" style="mask-type:luminance" maskUnits="userSpaceOnUse" x="479" y="12" width="95" height="173">
    <path d="M553.807 184.919C541.799 184.919 531.713 183.478 523.548 180.115C515.863 176.753 509.619 171.47 505.776 163.785C501.934 156.1 500.012 146.014 500.012 133.045L500.493 12.9689H532.193L531.713 135.447C531.713 142.171 533.634 146.974 536.996 150.336C540.358 153.699 545.642 155.62 551.886 155.62H572.539V184.919H553.807ZM479.359 75.4087V50.4327H573.019V75.4087H479.359Z" fill="white"/>
    </mask>
    <g mask="url(#mask2_71_2225)">
    <path fill-rule="evenodd" clip-rule="evenodd" d="M-256.461 26.4169C120.099 141.21 493.297 141.21 867.936 26.4169C1242.58 -88.3764 485.132 267.05 485.132 267.05L-5.741 243.035L-256.461 26.4169Z" fill="#212121"/>
    </g>
    </svg>
    